{"title":"Sunshine-720p MP4 AAC x264 BRRip 2007-CC","uid":7133185,"size":2187708923,"categoryP":"video","categoryS":"hd___movies","magnet":"?xt=urn:btih:0d4fc1d4fa7660f40acf223448709419d9211a6b&amp;dn=Sunshine-720p+MP4+AAC+x264+BRRip+2007-CC&amp;tr=udp%3A%2F%2Ftracker.openbittorrent.com%3A80&amp;tr=udp%3A%2F%2Fopen.demonii.com%3A1337&amp;tr=udp%3A%2F%2Ftracker.coppersurfer.tk%3A6969&amp;tr=udp%3A%2F%2Fexodus.desync.com%3A6969","seeders":1,"leechers":0,"uploader":"Caveman44","files":-1,"time":1332776771,"description":"Source: Sunshine.2007.BluRay.1080p.DTS.x264-CHD\n\nSubs: Arabic, Brazilian, Bulgarian, Croatian, Czech, Danish, Dutch, English, Estonian, German, Greek, Hungarian, Indonesian, Italian, Persian, Polish, Portuguese, Romanian, Servian, Slovenian, Spanish, Swedish and Turkish.\n\nSample and Screens included.\n\nGeneral\nComplete name                    : Sunshine-720p MP4 AAC x264 BRRip 2007-CC.mp4\nFormat                           : MPEG-4\nFormat profile                   : Base Media\nCodec ID                         : isom\nFile size                        : 2.01 GiB\nDuration                         : 1h 47mn\nOverall bit rate                 : 2 680 Kbps\nEncoded date                     : UTC 2012-03-24 10:02:44\n\nVideo\nID                               : 1\nFormat                           : AVC\nFormat/Info                      : Advanced Video Codec\nFormat profile                   : &lt;a class=&quot;__cf_email__&quot; href=&quot;/cdn-cgi/l/email-protection&quot; data-cfemail=&quot;276f4e404f676b140916&quot;&gt;[email&amp;#160;protected]&lt;/a&gt;&lt;script cf-hash='f9e31' type=&quot;text/javascript&quot;&gt;\n/* &lt;![CDATA[ */!function(){try{var t=&quot;currentScript&quot;in document?document.currentScript:function(){for(var t=document.getElementsByTagName(&quot;script&quot;),e=t.length;e--;)if(t[e].getAttribute(&quot;cf-hash&quot;))return t[e]}();if(t&amp;&amp;t.previousSibling){var e,r,n,i,c=t.previousSibling,a=c.getAttribute(&quot;data-cfemail&quot;);if(a){for(e=&quot;&quot;,r=parseInt(a.substr(0,2),16),n=2;a.length-n;n+=2)i=parseInt(a.substr(n,2),16)^r,e+=String.fromCharCode(i);e=document.createTextNode(e),c.parentNode.replaceChild(e,c)}}}catch(u){}}();/* ]]&gt; */&lt;/script&gt;\nFormat settings, CABAC           : Yes\nFormat settings, ReFrames        : 5 frames\nCodec ID                         : avc1\nCodec ID/Info                    : Advanced Video Coding\nDuration                         : 1h 47mn\nBit rate mode                    : Variable\nBit rate                         : 2 292 Kbps\nNominal bit rate                 : 2 305 Kbps\nMaximum bit rate                 : 14.0 Mbps\nWidth                            : 1 280 pixels\nHeight                           : 544 pixels\nDisplay aspect ratio             : 2.35:1\nFrame rate mode                  : Variable\nFrame rate                       : 23.976 fps\nMinimum frame rate               : 19.048 fps\nMaximum frame rate               : 24.390 fps\nResolution                       : 24 bits\nColorimetry                      : 4:2:0\nScan type                        : Progressive\nBits/(Pixel*Frame)               : 0.137\nStream size                      : 1.72 GiB (86%)\nWriting library                  : x264 core 112\n\n\nAudio\nID                               : 2\nFormat                           : AAC\nFormat/Info                      : Advanced Audio Codec\nFormat version                   : Version 4\nFormat profile                   : LC\nFormat settings, SBR             : No\nCodec ID                         : 40\nDuration                         : 1h 47mn\nBit rate mode                    : Variable\nBit rate                         : 384 Kbps\nMaximum bit rate                 : 794 Kbps\nChannel(s)                       : 6 channels\nChannel positions                : Front: L C R, Rear: L R, LFE\nSampling rate                    : 48.0 KHz\nResolution                       : 16 bits\nStream size                      : 294 MiB (14%)\nLanguage                         : English","torrent":{"xt":"urn:btih:0d4fc1d4fa7660f40acf223448709419d9211a6b","amp;dn":"Sunshine-720p+MP4+AAC+x264+BRRip+2007-CC","amp;tr":["udp%3A%2F%2Ftracker.openbittorrent.com%3A80","udp%3A%2F%2Fopen.demonii.com%3A1337","udp%3A%2F%2Ftracker.coppersurfer.tk%3A6969","udp%3A%2F%2Fexodus.desync.com%3A6969"],"infoHash":"0d4fc1d4fa7660f40acf223448709419d9211a6b","infoHashBuffer":{"type":"Buffer","data":[13,79,193,212,250,118,96,244,10,207,34,52,72,112,148,25,217,33,26,107]},"announce":[],"urlList":[]}}